<?xml version="1.0" encoding="UTF-8"?>
<svg id="Capa_1" data-name="Capa 1" xmlns="http://www.w3.org/2000/svg" viewBox="0 0 250 50">
  <defs>
    <style>
      .cls-1 {
        fill: #1d1d1b;
      }

      .cls-2 {
        fill: #36a9e1;
      }
    </style>
  </defs>
  <g>
    <path class="cls-1" d="M7.05,31c2.16,2.25,5.51,4.14,9.74,4.14,3.58,0,5.33-1.7,5.33-3.45,0-2.3-2.66-3.08-6.2-3.91-5.01-1.15-11.44-2.53-11.44-9.37,0-5.1,4.41-9.23,11.62-9.23,4.87,0,8.91,1.47,11.95,4.27l-3.63,4.78c-2.48-2.3-5.79-3.35-8.78-3.35s-4.5,1.29-4.5,3.12c0,2.07,2.57,2.71,6.11,3.54,5.05,1.15,11.49,2.66,11.49,9.46,0,5.61-4,9.83-12.27,9.83-5.88,0-10.11-1.98-13-4.87l3.58-4.96Z"/>
    <path class="cls-1" d="M33.15,9.63h6.62V27.83c0,4.27,2.34,7.21,7.12,7.21s7.03-2.94,7.03-7.21V9.63h6.62V28.01c0,7.63-4.36,12.82-13.65,12.82s-13.74-5.24-13.74-12.77V9.63Z"/>
    <path class="cls-1" d="M66.6,9.63h16.13c5.83,0,8.82,3.72,8.82,7.81,0,3.86-2.39,6.43-5.28,7.03,3.26,.51,5.88,3.68,5.88,7.54,0,4.59-3.08,8.27-8.91,8.27h-16.63V9.63Zm14.7,12.31c2.21,0,3.58-1.42,3.58-3.4s-1.38-3.35-3.58-3.35h-8.18v6.75h8.18Zm.23,12.77c2.48,0,3.95-1.42,3.95-3.63,0-1.93-1.38-3.58-3.95-3.58h-8.41v7.21h8.41Z"/>
    <path class="cls-1" d="M97.06,9.63h6.52v30.65h-6.52V9.63Z"/>
    <path class="cls-1" d="M120.95,29.3h-4.78v10.98h-6.52V9.63h14.33c6.39,0,10.29,4.18,10.29,9.88s-3.4,8.32-6.71,9.1l6.89,11.67h-7.49l-6.02-10.98Zm2.07-14.06h-6.85v8.45h6.85c2.62,0,4.59-1.65,4.59-4.23s-1.98-4.23-4.59-4.23Z"/>
    <path class="cls-1" d="M158.71,34.99h-13.69l-1.93,5.28h-7.17l11.85-30.65h8.18l11.81,30.65h-7.12l-1.93-5.28Zm-11.95-5.65h10.15l-5.05-14.06-5.1,14.06Z"/>
    <path class="cls-1" d="M177.14,19.69v20.58h-6.52V9.63h6.71l14.2,19.85V9.63h6.52v30.65h-6.29l-14.61-20.58Z"/>
    <path class="cls-1" d="M223.63,34.99h-13.69l-1.93,5.28h-7.17l11.85-30.65h8.18l11.81,30.65h-7.12l-1.93-5.28Zm-11.95-5.65h10.15l-5.05-14.06-5.1,14.06Z"/>
  </g>
  <rect class="cls-2" x="235.6" y="29.34" width="10.94" height="10.94"/>
</svg>