<?xml version="1.0" encoding="UTF-8"?>
<svg id="Capa_1" data-name="Capa 1" xmlns="http://www.w3.org/2000/svg" viewBox="0 0 1050.36 138">
  <defs>
    <style>
      .cls-1 {
        fill: #fff;
      }

      .cls-2 {
        fill: #36a9e1;
      }
    </style>
  </defs>
  <g>
    <path class="cls-1" d="M28.75,94.23c9.09,9.48,23.2,17.4,41,17.4,15.08,0,22.43-7.15,22.43-14.5,0-9.67-11.22-12.96-26.11-16.44-21.08-4.84-48.15-10.63-48.15-39.45C17.92,19.79,36.49,2.38,66.85,2.38c20.5,0,37.51,6.19,50.28,17.98l-15.28,20.11c-10.44-9.67-24.36-14.12-36.93-14.12s-18.95,5.41-18.95,13.15c0,8.7,10.83,11.41,25.72,14.89,21.27,4.84,48.34,11.22,48.34,39.84,0,23.59-16.82,41.38-51.63,41.38-24.75,0-42.54-8.32-54.72-20.5l15.08-20.88Z"/>
    <path class="cls-1" d="M138.59,4.32h27.85V80.89c0,17.98,9.86,30.36,29.97,30.36s29.59-12.38,29.59-30.36V4.32h27.85V81.66c0,32.1-18.37,53.95-57.43,53.95s-57.82-22.04-57.82-53.76V4.32Z"/>
    <path class="cls-1" d="M279.37,4.32h67.88c24.56,0,37.13,15.66,37.13,32.87,0,16.24-10.06,27.07-22.24,29.58,13.73,2.13,24.75,15.47,24.75,31.71,0,19.34-12.96,34.81-37.51,34.81h-70V4.32Zm61.88,51.82c9.28,0,15.08-5.99,15.08-14.31s-5.8-14.11-15.08-14.11h-34.42v28.43h34.42Zm.97,53.76c10.44,0,16.63-5.99,16.63-15.27,0-8.12-5.8-15.08-16.63-15.08h-35.39v30.36h35.39Z"/>
    <path class="cls-1" d="M407.57,4.32h27.46V133.3h-27.46V4.32Z"/>
    <path class="cls-1" d="M508.12,87.08h-20.11v46.22h-27.46V4.32h60.33c26.88,0,43.32,17.6,43.32,41.58s-14.31,35-28.23,38.29l29.01,49.12h-31.52l-25.33-46.22Zm8.7-59.17h-28.81V63.49h28.81c11.02,0,19.34-6.96,19.34-17.79s-8.32-17.79-19.34-17.79Z"/>
    <path class="cls-1" d="M667.08,111.06h-57.63l-8.12,22.24h-30.16L621.06,4.32h34.42l49.7,128.98h-29.97l-8.12-22.24Zm-50.28-23.79h42.74l-21.27-59.17-21.46,59.17Z"/>
    <path class="cls-1" d="M744.62,46.66v86.63h-27.46V4.32h28.23l59.75,83.54V4.32h27.46V133.3h-26.49l-61.49-86.63Z"/>
    <path class="cls-1" d="M940.32,111.06h-57.63l-8.12,22.24h-30.16L894.29,4.32h34.42l49.7,128.98h-29.97l-8.12-22.24Zm-50.28-23.79h42.74l-21.27-59.17-21.46,59.17Z"/>
  </g>
  <rect class="cls-2" x="990.66" y="87.27" width="46.03" height="46.03"/>
</svg>